<svg width="16" height="16" viewBox="0 0 16 16" fill="none" xmlns="http://www.w3.org/2000/svg">
<path d="M8 2.5C8.6895 2.5 9.25 3.02518 9.25 3.67046C9.25 4.31573 8.6895 4.84091 8 4.84091C7.3105 4.84091 6.75 4.31573 6.75 3.67046C6.75 3.02518 7.3105 2.5 8 2.5Z" fill="#0A0A0A"/>
<path d="M8 11.1591C8.6895 11.1591 9.25 11.6843 9.25 12.3295C9.25 12.9748 8.6895 13.5 8 13.5C7.3105 13.5 6.75 12.9748 6.75 12.3295C6.75 11.6843 7.3105 11.1591 8 11.1591Z" fill="#0A0A0A"/>
<path d="M8 6.82955C8.6895 6.82955 9.25 7.35473 9.25 8C9.25 8.64528 8.6895 9.17046 8 9.17046C7.3105 9.17046 6.75 8.64528 6.75 8C6.75 7.35473 7.3105 6.82955 8 6.82955Z" fill="#0A0A0A"/>
</svg>
