<svg width="16" height="16" viewBox="0 0 16 16" fill="none" xmlns="http://www.w3.org/2000/svg">
<path d="M13.3613 10.4894H4.51132L4.27132 9.23938H13.4013C13.6891 9.24018 13.9683 9.14084 14.1908 8.95839C14.4134 8.77594 14.5656 8.52175 14.6213 8.23938L15.4613 4.23938C15.5 4.05745 15.4976 3.86918 15.4543 3.6883C15.411 3.50742 15.3279 3.33848 15.211 3.19381C15.0941 3.04913 14.9464 2.93236 14.7786 2.85202C14.6109 2.77167 14.4273 2.72978 14.2413 2.72938H3.01132L2.79132 1.48938H0.511322V2.73938H1.76132L3.26132 10.5794C2.82567 10.6823 2.43714 10.9285 2.15794 11.2784C1.87873 11.6283 1.72499 12.0617 1.72132 12.5094C1.74474 13.0603 1.98489 13.5796 2.38947 13.9542C2.79405 14.3288 3.33027 14.5283 3.88132 14.5094C4.42798 14.5229 4.95798 14.3207 5.35662 13.9463C5.75525 13.572 5.99046 13.0558 6.01132 12.5094C6.00948 12.2447 5.95509 11.9829 5.85132 11.7394H11.3413C11.2376 11.9829 11.1832 12.2447 11.1813 12.5094C11.2047 13.0603 11.4449 13.5796 11.8495 13.9542C12.2541 14.3288 12.7903 14.5283 13.3413 14.5094C13.8718 14.5094 14.3805 14.2987 14.7555 13.9236C15.1306 13.5485 15.3413 13.0398 15.3413 12.5094C15.3413 11.9789 15.1306 11.4702 14.7555 11.0952C14.3805 10.7201 13.8718 10.5094 13.3413 10.5094L13.3613 10.4894ZM14.2413 4.00938L13.4013 8.00938H4.01132L3.27132 4.00938H14.2413ZM3.88132 13.2794C3.66567 13.2854 3.45579 13.2092 3.29423 13.0662C3.13268 12.9232 3.03154 12.7242 3.01132 12.5094C3.03169 12.2873 3.13849 12.0822 3.30872 11.9381C3.47895 11.7941 3.69896 11.7227 3.92132 11.7394C4.14263 11.7228 4.3615 11.7945 4.53013 11.9388C4.69876 12.083 4.80345 12.2882 4.82132 12.5094C4.8127 12.6226 4.78121 12.733 4.72873 12.8337C4.67626 12.9344 4.60391 13.0235 4.51604 13.0955C4.42817 13.1674 4.32662 13.2208 4.21753 13.2525C4.10843 13.2841 3.99406 13.2932 3.88132 13.2794ZM13.3613 13.2794C13.139 13.2961 12.9189 13.2247 12.7487 13.0806C12.5785 12.9366 12.4717 12.7314 12.4513 12.5094C12.49 12.2976 12.6018 12.1061 12.7672 11.9682C12.9325 11.8303 13.141 11.7548 13.3563 11.7548C13.5716 11.7548 13.7801 11.8303 13.9455 11.9682C14.1108 12.1061 14.2226 12.2976 14.2613 12.5094C14.2409 12.7296 14.1356 12.9332 13.9675 13.0769C13.7995 13.2207 13.582 13.2933 13.3613 13.2794Z" fill="#0A0A0A"/>
</svg>
