<svg width="16" height="16" viewBox="0 0 16 16" fill="none" xmlns="http://www.w3.org/2000/svg">
<path fill-rule="evenodd" clip-rule="evenodd" d="M2.475 5.38174V10.4329H3.725V8.80804H4.61742C5.47599 8.85219 6.15855 9.56231 6.15855 10.4319H7.40855C7.40855 9.66879 7.11137 8.97514 6.62645 8.46031C7.03862 8.14746 7.3048 7.65226 7.3048 7.09489C7.3048 6.14874 6.5378 5.38174 5.59165 5.38174H2.475ZM4.64549 7.55804H5.59165C5.84744 7.55804 6.0548 7.35068 6.0548 7.09489C6.0548 6.8391 5.84744 6.63174 5.59165 6.63174H3.725V7.55586H4.53255C4.57037 7.55586 4.60803 7.55659 4.64549 7.55804Z" fill="#0A0A0A"/>
<path d="M10.3371 4.11172H11.5871V5.36172H11.9071C12.7571 5.36172 13.4571 6.04172 13.4871 6.89172H12.2371C12.2071 6.73172 12.0671 6.61172 11.9071 6.61172H9.99708C9.83708 6.61172 9.69708 6.73172 9.66708 6.89172C9.65708 6.91172 9.65708 6.93172 9.65708 6.95172C9.65708 7.14172 9.80708 7.29172 9.99708 7.29172H11.9571C12.4471 7.29172 12.8971 7.52172 13.1871 7.88172C13.4071 8.15172 13.5371 8.50172 13.5271 8.87172V8.91172C13.5071 9.76172 12.8071 10.4517 11.9471 10.4517H11.5923V11.703H10.3423V10.4517H10.0371C9.17708 10.4517 8.47708 9.76172 8.45708 8.91172H9.71708C9.73708 9.07172 9.87708 9.20172 10.0471 9.20172H11.9671C12.1371 9.20172 12.2771 9.07172 12.2971 8.91172V8.87172C12.2971 8.68172 12.1471 8.53172 11.9571 8.53172H9.98708C9.49708 8.53172 9.04708 8.30172 8.75708 7.94172C8.53708 7.67172 8.40708 7.33172 8.40708 6.95172V6.89172C8.44708 6.04172 9.13708 5.36172 9.99708 5.36172H10.3371V4.11172Z" fill="#0A0A0A"/>
<path fill-rule="evenodd" clip-rule="evenodd" d="M1.25 1.5C0.559644 1.5 0 2.05964 0 2.75V13.25C0 13.9404 0.559644 14.5 1.25 14.5H14.75C15.4404 14.5 16 13.9404 16 13.25V2.75C16 2.05964 15.4404 1.5 14.75 1.5H1.25ZM14.75 2.75H1.25V13.25H14.75V2.75Z" fill="#0A0A0A"/>
</svg>
