<svg width="16" height="16" viewBox="0 0 16 16" fill="none" xmlns="http://www.w3.org/2000/svg">
<path fill-rule="evenodd" clip-rule="evenodd" d="M6.22109 7.21981L10.5611 2.86981L10.5511 2.85981L11.0011 2.41981L11.7011 1.72981C12.1116 1.32539 12.6649 1.09903 13.2411 1.09981C13.8143 1.0995 14.3643 1.32598 14.7711 1.72981C15.179 2.13852 15.4081 2.69237 15.4081 3.26981C15.4081 3.84725 15.179 4.4011 14.7711 4.80981L14.5211 5.05981L14.0711 5.49981L9.73109 9.85981L8.77109 10.8198L5.63109 12.3498C5.42822 12.4518 5.19836 12.4872 4.97418 12.4511C4.75001 12.415 4.54293 12.3091 4.38237 12.1485C4.22181 11.988 4.11594 11.7809 4.0798 11.5567C4.04367 11.3325 4.07911 11.1027 4.18109 10.8998L5.70109 7.73981L6.22109 7.21981ZM6.69109 8.56981L5.51109 10.9998L7.94109 9.82981L6.69109 8.56981ZM11.4111 3.72981L7.51109 7.63981L8.85109 8.99981L12.7111 5.03981L11.4111 3.72981ZM13.5433 2.39942C13.4317 2.35307 13.3119 2.3294 13.1911 2.32981L13.2311 2.34981C13.1049 2.33937 12.9779 2.3563 12.8588 2.39945C12.7397 2.44259 12.6313 2.51094 12.5411 2.59981L12.2911 2.84981L13.5911 4.14981L13.8411 3.90981C14.0139 3.73562 14.1109 3.50019 14.1109 3.25481C14.1109 3.00943 14.0139 2.774 13.8411 2.59981C13.7561 2.5139 13.6549 2.44578 13.5433 2.39942Z" fill="#0A0A0A"/>
<path d="M14.3307 7.3002H15.4907L15.5007 13.6502C15.5061 13.8091 15.48 13.9675 15.4241 14.1164C15.3682 14.2652 15.2835 14.4016 15.1748 14.5177C15.0661 14.6338 14.9357 14.7273 14.7908 14.793C14.646 14.8586 14.4896 14.895 14.3307 14.9002H1.67072C1.51179 14.895 1.35544 14.8586 1.21061 14.793C1.06577 14.7273 0.935296 14.6338 0.826635 14.5177C0.717974 14.4016 0.63326 14.2652 0.577337 14.1164C0.521413 13.9675 0.495378 13.8091 0.500718 13.6502V3.2802C0.491287 3.11882 0.514287 2.95719 0.568359 2.80486C0.622432 2.65252 0.706481 2.51256 0.815543 2.39324C0.924605 2.27393 1.05647 2.17767 1.20335 2.11017C1.35023 2.04266 1.50915 2.00527 1.67072 2.0002H8.00072V3.2802H1.67072V13.6502H14.3307V7.3002Z" fill="#0A0A0A"/>
</svg>
