<svg width="16" height="16" viewBox="0 0 16 16" fill="none" xmlns="http://www.w3.org/2000/svg">
<path fill-rule="evenodd" clip-rule="evenodd" d="M6.59418 1.96482C9.62798 1.96482 12.0942 4.2756 12.0942 7.11482C12.0942 8.1317 11.7778 9.08079 11.2324 9.88021L14.9058 13.0945L14.0827 14.0352L10.4094 10.8211C9.41994 11.7145 8.07464 12.2648 6.59418 12.2648C3.56038 12.2648 1.09418 9.95404 1.09418 7.11482C1.09418 4.2756 3.56038 1.96482 6.59418 1.96482ZM6.59418 3.21482C9.01606 3.21482 10.8442 5.04187 10.8442 7.11482C10.8442 9.18777 9.01606 11.0148 6.59418 11.0148C4.17229 11.0148 2.34418 9.18777 2.34418 7.11482C2.34418 5.04187 4.17229 3.21482 6.59418 3.21482Z" fill="#0A0A0A"/>
</svg>
