<svg width="16" height="16" viewBox="0 0 16 16" fill="none" xmlns="http://www.w3.org/2000/svg">
<path d="M8 0.939453C8.87816 0.939453 9.7174 1.08898 10.4902 1.3584C10.2635 1.70429 10.1049 2.09904 10.0371 2.52441C9.40426 2.309 8.71755 2.18945 8 2.18945C4.87017 2.18945 2.33035 4.46946 2.33008 7.23926C2.35669 7.99022 2.54415 8.72715 2.87988 9.39941C3.31081 10.8059 3.25849 12.3165 2.73047 13.6895V13.75C2.75313 13.7562 2.77716 13.7563 2.7998 13.75C3.5126 13.2958 4.18209 12.7761 4.7998 12.1992L5.36035 11.6396L6.11035 11.8994C6.71923 12.1027 7.35818 12.2009 8 12.1895C11.13 12.1895 13.6797 9.93945 13.6797 7.18945C13.6797 6.76449 13.6184 6.35165 13.5039 5.95703C13.9281 5.88527 14.3213 5.72407 14.665 5.49414C14.8363 6.03967 14.9297 6.61502 14.9297 7.20996C14.9295 10.6698 11.8299 13.4795 8 13.4795C7.21514 13.4942 6.43362 13.3729 5.69043 13.1201C5.02468 13.7555 4.30143 14.3279 3.53027 14.8301C3.30264 14.9859 3.03163 15.0665 2.75586 15.0605C2.4801 15.0546 2.21285 14.9614 1.99219 14.7959C1.77181 14.6305 1.60831 14.4005 1.52539 14.1377C1.44247 13.8747 1.44454 13.5921 1.53027 13.3301C1.96373 12.2198 2.02656 10.9987 1.70996 9.84961C1.31083 9.02544 1.09293 8.12541 1.07031 7.20996C1.07031 3.74996 4.17 0.939453 8 0.939453Z" fill="#0A0A0A"/>
<path d="M5.2002 6.94922C5.64188 6.94928 5.99986 7.28515 6 7.69922C6 8.1134 5.64197 8.44916 5.2002 8.44922C4.75837 8.44922 4.40039 8.11343 4.40039 7.69922C4.40053 7.28512 4.75845 6.94922 5.2002 6.94922Z" fill="#0A0A0A"/>
<path d="M8 6.94922C8.44169 6.94928 8.79966 7.28515 8.7998 7.69922C8.7998 8.1134 8.44177 8.44916 8 8.44922C7.55817 8.44922 7.2002 8.11343 7.2002 7.69922C7.20034 7.28512 7.55826 6.94922 8 6.94922Z" fill="#0A0A0A"/>
<path d="M10.7998 6.94922C11.2415 6.94928 11.5995 7.28515 11.5996 7.69922C11.5996 8.1134 11.2416 8.44916 10.7998 8.44922C10.358 8.44922 10 8.11343 10 7.69922C10.0001 7.28512 10.3581 6.94922 10.7998 6.94922Z" fill="#0A0A0A"/>
<path d="M12.8797 1.24927C14.0118 1.24942 14.9293 2.10926 14.9297 3.16927C14.9297 4.22956 14.012 5.08912 12.8797 5.08927C11.7472 5.08927 10.8297 4.22965 10.8297 3.16927C10.83 2.10917 11.7474 1.24927 12.8797 1.24927Z" fill="#0A0A0A"/>
</svg>
