<svg width="16" height="16" viewBox="0 0 16 16" fill="none" xmlns="http://www.w3.org/2000/svg">
<path d="M12.25 0H3.75C3.41848 0 3.10054 0.131696 2.86612 0.366117C2.6317 0.600537 2.5 0.918479 2.5 1.25V14.75C2.5 15.0815 2.6317 15.3995 2.86612 15.6339C3.10054 15.8683 3.41848 16 3.75 16H12.25C12.5815 16 12.8995 15.8683 13.1339 15.6339C13.3683 15.3995 13.5 15.0815 13.5 14.75V1.25C13.5 0.918479 13.3683 0.600537 13.1339 0.366117C12.8995 0.131696 12.5815 0 12.25 0ZM12.25 14.75H3.75V1.25H12.25V14.75Z" fill="#0A0A0A"/>
<path d="M8 13.5C8.44183 13.5 8.8 13.1642 8.8 12.75C8.8 12.3358 8.44183 12 8 12C7.55817 12 7.2 12.3358 7.2 12.75C7.2 13.1642 7.55817 13.5 8 13.5Z" fill="#0A0A0A"/>
</svg>
